<svg id="Layer_1" data-name="Layer 1" xmlns="http://www.w3.org/2000/svg" viewBox="0 0 40 40"><defs><style>.cls-1{fill:#97c0d8;}</style></defs><path class="cls-1" d="M30.91,40H9.09A9.1,9.1,0,0,1,0,30.91V9.09A9.1,9.1,0,0,1,9.09,0H30.91A9.1,9.1,0,0,1,40,9.09V30.91A9.1,9.1,0,0,1,30.91,40ZM9.09,3.64A5.45,5.45,0,0,0,3.64,9.09V30.91a5.45,5.45,0,0,0,5.45,5.45H30.91a5.45,5.45,0,0,0,5.45-5.45V9.09a5.45,5.45,0,0,0-5.45-5.45Z"/><path class="cls-1" d="M20,30.91A10.91,10.91,0,1,1,30.91,20,10.92,10.92,0,0,1,20,30.91Zm0-18.18A7.27,7.27,0,1,0,27.27,20,7.28,7.28,0,0,0,20,12.73Z"/></svg>