<svg id="Layer_1" data-name="Layer 1" xmlns="http://www.w3.org/2000/svg" viewBox="0 0 250 250"><defs><style>.cls-1{fill:#dffafb;}.cls-2{fill:#ed6c4d;}</style></defs><rect class="cls-1" x="55.18" y="158.83" width="159.38" height="24.95" rx="10.87" transform="translate(221.85 -28.61) rotate(61.73)"/><path class="cls-2" d="M14.83,206.11l-1.05,2.48c.17-.41.35-.82.51-1.22,0,0,0,0,0-.05C14.49,206.92,14.66,206.52,14.83,206.11Z"/><path class="cls-2" d="M28.59,156.16c-.12.92-.25,1.84-.37,2.76.06-.41.11-.83.16-1.24Z"/><path class="cls-2" d="M51.89,125.13l-.21,1.64v0c-.06.36-.11.73-.16,1.09C51.64,127,51.77,126.05,51.89,125.13Z"/><path class="cls-2" d="M55.88,110.88c-.18.44-.36.87-.52,1.31h0c-.17.38-.35.77-.51,1.16Z"/><path class="cls-2" d="M248.6,14.16l-2.34,7.36q-9.48,29.83-18.95,59.68t-18.88,59.46Q199,170.34,189.58,200A161.5,161.5,0,0,1,184,215.85a30.79,30.79,0,0,1-3.2,5.75,33.69,33.69,0,0,1-4.17,4.81,35.4,35.4,0,0,1-3.34,2.78A22.8,22.8,0,0,1,155,233.08a16.74,16.74,0,0,1-3.53-1.21h0a17.53,17.53,0,0,1-3.13-1.55,22.66,22.66,0,0,1-5.29-4.62,32.25,32.25,0,0,1-4.06-6,52.59,52.59,0,0,1-2.9-7.14,101,101,0,0,1-2.72-11.81c-.26-1.32-.53-2.65-.79-4-.06-.28-.11-.57-.17-.85a.14.14,0,0,0-.27,0v0c0,.07,0,.14,0,.2-1.39,5.77-2.61,11.63-4.88,17.13a46.15,46.15,0,0,1-4.49,9,33.38,33.38,0,0,1-8.42,8.63,20.87,20.87,0,0,1-4.24,2.22,21.29,21.29,0,0,1-4.91,1.57,27.29,27.29,0,0,1-13.51-.89,35.5,35.5,0,0,1-18.88-15.89c-3.7-6.29-5.87-13.46-7.7-20.48a187.17,187.17,0,0,1-6-45.23,172.91,172.91,0,0,1,.76-18.35c.1-1.1.22-2.2.34-3.3.87-7.66,2.32-15.22,3.4-22.85v0c.17-1.47.33-2.93.44-4.4.07-.81.12-1.61.15-2.42,0,0,0,0,0,0l1.47-4s0,0,0,0l14-15.37a.14.14,0,0,1,.16,0l1.83.8.06,0a14.49,14.49,0,0,1,2.57,6.27c.18,1.21.34,2.42.45,3.63a55.15,55.15,0,0,1,.28,6c-.06,7.94-1.47,15.79-2.78,23.63-.36,2.17-.71,4.35-1,6.52a.11.11,0,0,0,0,.05,177.17,177.17,0,0,0,0,43.78.45.45,0,0,0,0,.11c.78,5.48,1.81,10.93,3.1,16.31a115.81,115.81,0,0,0,4.48,15h0a38.75,38.75,0,0,0,3.42,6.09h0a23.64,23.64,0,0,0,2.59,2.61h0a23.86,23.86,0,0,0,2.54,1.5h0a17.1,17.1,0,0,0,2.09.59h0a13.08,13.08,0,0,0,1.4,0h0c.39-.09.77-.2,1.15-.32h0a12.19,12.19,0,0,0,1.2-.71h0a19.63,19.63,0,0,0,1.63-1.66h0a33,33,0,0,0,2.7-4.82h0c2.59-6.64,3.93-13.76,5.58-20.66,1-4,2-8.1,2.93-12.14.44-1.85.83-3.73,1.29-5.6a37.89,37.89,0,0,1,2.51-7.56,14.22,14.22,0,0,1,8.52-7.1,13.53,13.53,0,0,1,9.91.93l.59.29c4.5,2.41,7.33,7.32,8.82,12a53.18,53.18,0,0,1,1.17,5.47c.19,1,.39,2,.58,3s.41,2,.61,3.05q1.22,6.12,2.42,12.24c1.2,6,2.06,12.28,4.23,18.06v0a24.33,24.33,0,0,0,1.69,3h0c.24.27.49.52.75.77l0,0,.28.17h0l.2.06h.26c.23,0,.45-.12.67-.19h0c.44-.23.87-.49,1.29-.76h0a20,20,0,0,0,1.45-1.46v0a29.76,29.76,0,0,0,2.36-4.24h0l.09-.22c1.05-2.78,1.91-5.62,2.81-8.44l3.42-10.8,7-22q12.36-38.9,24.7-77.79Q216.17,47.8,228.59,8.65a10.6,10.6,0,0,1,12.76-7.24C246.67,2.62,250.24,9,248.6,14.16Z"/><path class="cls-1" d="M55.88,110.88c-.18.44-.36.87-.52,1.31h0c-.17.38-.35.77-.51,1.16Z"/><rect class="cls-1" x="15.15" y="88.27" width="159.38" height="24.95" rx="10.87" transform="translate(-36.4 56.94) rotate(-28.27)"/><path class="cls-2" d="M64.05,100.38h0a.14.14,0,0,0-.23-.11,35.61,35.61,0,0,0-4,4.09h0q-.56.78-1.08,1.59a47.74,47.74,0,0,0-3.41,6.24c.16-.43.34-.87.52-1.31l-1,2.48c.17-.39.34-.78.52-1.17a67,67,0,0,0-3.68,14.58l.21-1.64c-.12.92-.25,1.84-.37,2.76,0-.36.1-.73.16-1.09-.47,3.93-.76,7.88-1,11.84-.38,5.94-.67,11.89-1.38,17.8a206.4,206.4,0,0,1-12.16,49.37c-4.95,12.93-11,25.37-16.82,37.92-1.11,2.41-3.76,4-6.19,4.76a10.47,10.47,0,0,1-8-1,10.58,10.58,0,0,1-4.76-6.2,11.15,11.15,0,0,1,1-8c4-8.62,8.17-17.16,11.9-25.89-.16.4-.34.81-.51,1.22l1.05-2.48c-.17.41-.34.81-.52,1.21,1.23-3,2.42-5.93,3.53-8.93a196.88,196.88,0,0,0,10.54-40.71c-.05.41-.1.83-.16,1.24.12-.92.25-1.84.37-2.76l-.21,1.52c.58-4.72.9-9.47,1.2-14.21.36-5.62.69-11.25,1.37-16.85.26-2.06.52-4.11.85-6.17a73.33,73.33,0,0,1,2.14-9.7,64.36,64.36,0,0,1,5.2-12.42,51.36,51.36,0,0,1,8.1-10.94,39,39,0,0,1,10.48-7.78c6.05-3,13.32-5.1,19.6-1.35a14.17,14.17,0,0,1,4.15,3.79.15.15,0,0,1,0,.18L64.29,100.48A.14.14,0,0,1,64.05,100.38Z"/></svg>